<svg width="417" height="56" viewBox="0 0 417 56" fill="none" xmlns="http://www.w3.org/2000/svg">
<path d="M85.8415 45H74.4731V11.4516H86.0708C89.4017 11.4516 92.2629 12.1232 94.6545 13.4665C97.0571 14.7988 98.9027 16.7154 100.191 19.2162C101.48 21.7171 102.124 24.7093 102.124 28.193C102.124 31.6877 101.474 34.6909 100.175 37.2026C98.8863 39.7144 97.0243 41.6419 94.589 42.9851C92.1646 44.3284 89.2488 45 85.8415 45ZM80.5504 39.7417H85.5467C87.8837 39.7417 89.833 39.3158 91.3947 38.464C92.9563 37.6012 94.1303 36.318 94.9166 34.6144C95.7029 32.8999 96.0961 30.7594 96.0961 28.193C96.0961 25.6267 95.7029 23.4971 94.9166 21.8044C94.1303 20.1008 92.9673 18.8285 91.4275 17.9877C89.8986 17.1358 87.9984 16.7099 85.7268 16.7099H80.5504V39.7417ZM118.776 45.4914C116.253 45.4914 114.074 44.9672 112.24 43.9189C110.416 42.8595 109.013 41.3634 108.03 39.4304C107.047 37.4866 106.555 35.1987 106.555 32.5668C106.555 29.9786 107.047 27.7071 108.03 25.7523C109.023 23.7865 110.41 22.2576 112.19 21.1656C113.971 20.0626 116.062 19.5111 118.464 19.5111C120.015 19.5111 121.478 19.7623 122.854 20.2646C124.241 20.756 125.465 21.5205 126.524 22.558C127.594 23.5954 128.435 24.9168 129.047 26.5222C129.658 28.1166 129.964 30.0168 129.964 32.2228V34.0411H109.34V30.0441H124.28C124.269 28.9083 124.023 27.8982 123.542 27.0136C123.062 26.1181 122.39 25.4137 121.528 24.9005C120.676 24.3872 119.682 24.1305 118.546 24.1305C117.334 24.1305 116.269 24.4254 115.352 25.0151C114.435 25.5939 113.719 26.3584 113.206 27.3085C112.704 28.2476 112.447 29.2797 112.436 30.4045V33.8936C112.436 35.357 112.704 36.6129 113.239 37.6613C113.774 38.6988 114.522 39.496 115.483 40.0529C116.444 40.599 117.569 40.872 118.858 40.872C119.72 40.872 120.501 40.7518 121.2 40.5116C121.899 40.2604 122.505 39.8946 123.018 39.4141C123.532 38.9336 123.919 38.3384 124.181 37.6285L129.718 38.251C129.369 39.7144 128.703 40.9921 127.72 42.0842C126.748 43.1653 125.503 44.0062 123.985 44.6069C122.467 45.1966 120.73 45.4914 118.776 45.4914ZM140.911 11.4516V45H134.981V11.4516H140.911ZM147.008 45V19.8387H152.938V45H147.008ZM147.713 16.5297L151.382 9.0436H157.181L152.152 16.5297H147.713ZM170.011 45.4914C167.5 45.4914 165.343 44.9399 163.541 43.8369C161.75 42.734 160.368 41.2105 159.397 39.2666C158.435 37.3118 157.955 35.0622 157.955 32.5176C157.955 29.9622 158.446 27.7071 159.429 25.7523C160.412 23.7865 161.799 22.2576 163.59 21.1656C165.392 20.0626 167.522 19.5111 169.979 19.5111C172.021 19.5111 173.828 19.8879 175.401 20.6414C176.984 21.384 178.246 22.4378 179.185 23.8029C180.124 25.1571 180.659 26.7406 180.79 28.5534H175.122C174.893 27.3412 174.347 26.3311 173.484 25.5229C172.632 24.7039 171.491 24.2944 170.061 24.2944C168.848 24.2944 167.784 24.622 166.866 25.2772C165.949 25.9215 165.234 26.8498 164.72 28.062C164.218 29.2742 163.967 30.7266 163.967 32.4194C163.967 34.1339 164.218 35.6082 164.72 36.8422C165.223 38.0654 165.927 39.01 166.834 39.6762C167.751 40.3314 168.827 40.659 170.061 40.659C170.934 40.659 171.715 40.4952 172.403 40.1676C173.102 39.829 173.686 39.3431 174.156 38.7097C174.625 38.0763 174.948 37.3064 175.122 36.3999H180.79C180.648 38.18 180.124 39.7581 179.218 41.1341C178.311 42.4992 177.077 43.5694 175.515 44.3448C173.954 45.1092 172.119 45.4914 170.011 45.4914ZM185.659 45V19.8387H191.589V45H185.659ZM188.641 16.2676C187.702 16.2676 186.893 15.9564 186.216 15.3339C185.539 14.7005 185.201 13.9415 185.201 13.057C185.201 12.1615 185.539 11.4025 186.216 10.78C186.893 10.1466 187.702 9.82989 188.641 9.82989C189.591 9.82989 190.399 10.1466 191.065 10.78C191.742 11.4025 192.081 12.1615 192.081 13.057C192.081 13.9415 191.742 14.7005 191.065 15.3339C190.399 15.9564 189.591 16.2676 188.641 16.2676ZM204.928 45.5078C203.333 45.5078 201.897 45.2239 200.619 44.656C199.353 44.0772 198.348 43.2254 197.605 42.1006C196.874 40.9757 196.508 39.5888 196.508 37.9398C196.508 36.5201 196.77 35.3461 197.294 34.4178C197.818 33.4896 198.534 32.747 199.44 32.19C200.346 31.6331 201.367 31.2126 202.503 30.9287C203.65 30.6338 204.835 30.4209 206.058 30.2898C207.532 30.1369 208.728 30.0004 209.645 29.8803C210.563 29.7492 211.229 29.5527 211.644 29.2906C212.07 29.0176 212.283 28.5971 212.283 28.0292V27.9309C212.283 26.6969 211.917 25.7413 211.185 25.0643C210.454 24.3872 209.4 24.0486 208.024 24.0486C206.571 24.0486 205.419 24.3653 204.567 24.9987C203.726 25.6321 203.158 26.3802 202.864 27.2429L197.327 26.4567C197.764 24.9278 198.484 23.65 199.489 22.6235C200.494 21.586 201.722 20.8107 203.175 20.2974C204.627 19.7732 206.233 19.5111 207.991 19.5111C209.203 19.5111 210.41 19.6531 211.611 19.937C212.812 20.2209 213.91 20.6905 214.904 21.3458C215.897 21.9901 216.695 22.8692 217.295 23.9831C217.907 25.097 218.213 26.4894 218.213 28.1603V45H212.512V41.5436H212.315C211.955 42.2425 211.447 42.8978 210.792 43.5093C210.148 44.11 209.334 44.5959 208.351 44.9672C207.379 45.3276 206.238 45.5078 204.928 45.5078ZM206.467 41.1505C207.658 41.1505 208.69 40.9157 209.563 40.4461C210.437 39.9656 211.109 39.3322 211.578 38.5459C212.059 37.7596 212.299 36.9023 212.299 35.974V33.0091C212.113 33.162 211.797 33.3039 211.349 33.435C210.912 33.566 210.421 33.6807 209.875 33.779C209.329 33.8773 208.788 33.9646 208.253 34.0411C207.718 34.1175 207.254 34.183 206.861 34.2377C205.976 34.3578 205.184 34.5544 204.485 34.8274C203.786 35.1004 203.235 35.4826 202.831 35.974C202.427 36.4546 202.225 37.077 202.225 37.8415C202.225 38.9336 202.623 39.7581 203.421 40.315C204.218 40.872 205.233 41.1505 206.467 41.1505ZM244.062 26.4894L238.656 27.0791C238.503 26.5331 238.236 26.0198 237.854 25.5393C237.482 25.0588 236.98 24.6711 236.346 24.3763C235.713 24.0814 234.938 23.934 234.02 23.934C232.786 23.934 231.749 24.2015 230.908 24.7366C230.078 25.2718 229.668 25.9652 229.679 26.817C229.668 27.5487 229.936 28.1439 230.482 28.6026C231.039 29.0612 231.956 29.438 233.234 29.7329L237.526 30.6502C239.907 31.1635 241.676 31.9771 242.833 33.091C244.002 34.2049 244.592 35.6628 244.603 37.4647C244.592 39.0482 244.127 40.4461 243.21 41.6583C242.304 42.8595 241.042 43.7987 239.426 44.4758C237.81 45.1529 235.953 45.4914 233.857 45.4914C230.777 45.4914 228.298 44.8471 226.42 43.5585C224.541 42.2589 223.422 40.4515 223.061 38.1363L228.844 37.5794C229.106 38.7151 229.663 39.5724 230.515 40.1512C231.367 40.73 232.475 41.0194 233.84 41.0194C235.249 41.0194 236.379 40.73 237.231 40.1512C238.094 39.5724 238.525 38.8571 238.525 38.0053C238.525 37.2845 238.247 36.6893 237.69 36.2198C237.144 35.7502 236.292 35.3898 235.134 35.1386L230.842 34.2377C228.429 33.7353 226.643 32.8889 225.486 31.6986C224.328 30.4973 223.755 28.9793 223.766 27.1447C223.755 25.5939 224.175 24.2507 225.027 23.1149C225.89 21.9682 227.086 21.0837 228.615 20.4612C230.154 19.8278 231.929 19.5111 233.938 19.5111C236.887 19.5111 239.208 20.139 240.9 21.3949C242.604 22.6508 243.658 24.349 244.062 26.4894ZM268.175 45.5078C266.58 45.5078 265.144 45.2239 263.867 44.656C262.6 44.0772 261.595 43.2254 260.853 42.1006C260.121 40.9757 259.755 39.5888 259.755 37.9398C259.755 36.5201 260.017 35.3461 260.541 34.4178C261.065 33.4896 261.781 32.747 262.687 32.19C263.594 31.6331 264.615 31.2126 265.75 30.9287C266.897 30.6338 268.082 30.4209 269.305 30.2898C270.779 30.1369 271.975 30.0004 272.893 29.8803C273.81 29.7492 274.476 29.5527 274.891 29.2906C275.317 29.0176 275.53 28.5971 275.53 28.0292V27.9309C275.53 26.6969 275.164 25.7413 274.432 25.0643C273.701 24.3872 272.647 24.0486 271.271 24.0486C269.818 24.0486 268.666 24.3653 267.814 24.9987C266.974 25.6321 266.406 26.3802 266.111 27.2429L260.574 26.4567C261.011 24.9278 261.732 23.65 262.736 22.6235C263.741 21.586 264.97 20.8107 266.422 20.2974C267.875 19.7732 269.48 19.5111 271.238 19.5111C272.45 19.5111 273.657 19.6531 274.858 19.937C276.06 20.2209 277.157 20.6905 278.151 21.3458C279.145 21.9901 279.942 22.8692 280.543 23.9831C281.154 25.097 281.46 26.4894 281.46 28.1603V45H275.759V41.5436H275.563C275.202 42.2425 274.695 42.8978 274.039 43.5093C273.395 44.11 272.581 44.5959 271.599 44.9672C270.627 45.3276 269.485 45.5078 268.175 45.5078ZM269.715 41.1505C270.905 41.1505 271.937 40.9157 272.811 40.4461C273.684 39.9656 274.356 39.3322 274.826 38.5459C275.306 37.7596 275.546 36.9023 275.546 35.974V33.0091C275.361 33.162 275.044 33.3039 274.596 33.435C274.159 33.566 273.668 33.6807 273.122 33.779C272.576 33.8773 272.035 33.9646 271.5 34.0411C270.965 34.1175 270.501 34.183 270.108 34.2377C269.223 34.3578 268.432 34.5544 267.733 34.8274C267.034 35.1004 266.482 35.4826 266.078 35.974C265.674 36.4546 265.472 37.077 265.472 37.8415C265.472 38.9336 265.871 39.7581 266.668 40.315C267.465 40.872 268.481 41.1505 269.715 41.1505ZM269.338 16.5297L264.309 9.0436H270.124L273.777 16.5297H269.338ZM299.127 11.4516H306.564L316.524 35.7611H316.917L326.876 11.4516H334.313V45H328.482V21.9519H328.17L318.899 44.9017H314.541L305.27 21.9027H304.959V45H299.127V11.4516ZM351.808 45.4914C349.286 45.4914 347.107 44.9672 345.272 43.9189C343.449 42.8595 342.045 41.3634 341.062 39.4304C340.079 37.4866 339.588 35.1987 339.588 32.5668C339.588 29.9786 340.079 27.7071 341.062 25.7523C342.056 23.7865 343.443 22.2576 345.223 21.1656C347.003 20.0626 349.095 19.5111 351.497 19.5111C353.048 19.5111 354.511 19.7623 355.887 20.2646C357.274 20.756 358.497 21.5205 359.557 22.558C360.627 23.5954 361.468 24.9168 362.079 26.5222C362.691 28.1166 362.997 30.0168 362.997 32.2228V34.0411H342.373V30.0441H357.312C357.301 28.9083 357.056 27.8982 356.575 27.0136C356.095 26.1181 355.423 25.4137 354.56 24.9005C353.709 24.3872 352.715 24.1305 351.579 24.1305C350.367 24.1305 349.302 24.4254 348.385 25.0151C347.467 25.5939 346.752 26.3584 346.239 27.3085C345.736 28.2476 345.48 29.2797 345.469 30.4045V33.8936C345.469 35.357 345.736 36.6129 346.272 37.6613C346.807 38.6988 347.555 39.496 348.516 40.0529C349.477 40.599 350.602 40.872 351.89 40.872C352.753 40.872 353.534 40.7518 354.233 40.5116C354.932 40.2604 355.538 39.8946 356.051 39.4141C356.564 38.9336 356.952 38.3384 357.214 37.6285L362.751 38.251C362.401 39.7144 361.735 40.9921 360.752 42.0842C359.78 43.1653 358.535 44.0062 357.017 44.6069C355.499 45.1966 353.763 45.4914 351.808 45.4914ZM387.9 26.4894L382.494 27.0791C382.341 26.5331 382.074 26.0198 381.691 25.5393C381.32 25.0588 380.818 24.6711 380.184 24.3763C379.551 24.0814 378.776 23.934 377.858 23.934C376.624 23.934 375.587 24.2015 374.746 24.7366C373.916 25.2718 373.506 25.9652 373.517 26.817C373.506 27.5487 373.774 28.1439 374.32 28.6026C374.877 29.0612 375.794 29.438 377.072 29.7329L381.364 30.6502C383.745 31.1635 385.514 31.9771 386.671 33.091C387.84 34.2049 388.43 35.6628 388.44 37.4647C388.43 39.0482 387.965 40.4461 387.048 41.6583C386.142 42.8595 384.88 43.7987 383.264 44.4758C381.648 45.1529 379.791 45.4914 377.694 45.4914C374.615 45.4914 372.136 44.8471 370.257 43.5585C368.379 42.2589 367.26 40.4515 366.899 38.1363L372.682 37.5794C372.944 38.7151 373.501 39.5724 374.353 40.1512C375.205 40.73 376.313 41.0194 377.678 41.0194C379.087 41.0194 380.217 40.73 381.069 40.1512C381.932 39.5724 382.363 38.8571 382.363 38.0053C382.363 37.2845 382.085 36.6893 381.528 36.2198C380.982 35.7502 380.13 35.3898 378.972 35.1386L374.68 34.2377C372.267 33.7353 370.481 32.8889 369.324 31.6986C368.166 30.4973 367.593 28.9793 367.604 27.1447C367.593 25.5939 368.013 24.2507 368.865 23.1149C369.728 21.9682 370.924 21.0837 372.453 20.4612C373.992 19.8278 375.767 19.5111 377.776 19.5111C380.725 19.5111 383.046 20.139 384.738 21.3949C386.442 22.6508 387.496 24.349 387.9 26.4894ZM400.571 45.5078C398.976 45.5078 397.54 45.2239 396.262 44.656C394.996 44.0772 393.991 43.2254 393.248 42.1006C392.517 40.9757 392.151 39.5888 392.151 37.9398C392.151 36.5201 392.413 35.3461 392.937 34.4178C393.461 33.4896 394.177 32.747 395.083 32.19C395.989 31.6331 397.01 31.2126 398.146 30.9287C399.293 30.6338 400.478 30.4209 401.701 30.2898C403.175 30.1369 404.371 30.0004 405.288 29.8803C406.206 29.7492 406.872 29.5527 407.287 29.2906C407.713 29.0176 407.926 28.5971 407.926 28.0292V27.9309C407.926 26.6969 407.56 25.7413 406.828 25.0643C406.096 24.3872 405.043 24.0486 403.667 24.0486C402.214 24.0486 401.062 24.3653 400.21 24.9987C399.369 25.6321 398.801 26.3802 398.507 27.2429L392.97 26.4567C393.407 24.9278 394.127 23.65 395.132 22.6235C396.137 21.586 397.365 20.8107 398.818 20.2974C400.27 19.7732 401.876 19.5111 403.634 19.5111C404.846 19.5111 406.053 19.6531 407.254 19.937C408.455 20.2209 409.553 20.6905 410.547 21.3458C411.54 21.9901 412.338 22.8692 412.938 23.9831C413.55 25.097 413.856 26.4894 413.856 28.1603V45H408.155V41.5436H407.958C407.598 42.2425 407.09 42.8978 406.435 43.5093C405.791 44.11 404.977 44.5959 403.994 44.9672C403.022 45.3276 401.881 45.5078 400.571 45.5078ZM402.11 41.1505C403.301 41.1505 404.333 40.9157 405.206 40.4461C406.08 39.9656 406.752 39.3322 407.221 38.5459C407.702 37.7596 407.942 36.9023 407.942 35.974V33.0091C407.756 33.162 407.44 33.3039 406.992 33.435C406.555 33.566 406.064 33.6807 405.518 33.779C404.972 33.8773 404.431 33.9646 403.896 34.0411C403.361 34.1175 402.897 34.183 402.504 34.2377C401.619 34.3578 400.827 34.5544 400.128 34.8274C399.429 35.1004 398.878 35.4826 398.474 35.974C398.07 36.4546 397.868 37.077 397.868 37.8415C397.868 38.9336 398.266 39.7581 399.064 40.315C399.861 40.872 400.876 41.1505 402.11 41.1505Z" fill="#2C2B2B"/>
<path d="M12.4194 12.4193V5.32253C12.4194 4.85199 12.6063 4.40071 12.939 4.06799C13.2717 3.73526 13.723 3.54834 14.1935 3.54834C14.6641 3.54834 15.1154 3.73526 15.4481 4.06799C15.7808 4.40071 15.9677 4.85199 15.9677 5.32253V12.4193C15.9677 12.8899 15.7808 13.3411 15.4481 13.6739C15.1154 14.0066 14.6641 14.1935 14.1935 14.1935C13.723 14.1935 13.2717 14.0066 12.939 13.6739C12.6063 13.3411 12.4194 12.8899 12.4194 12.4193ZM21.2903 14.1935C21.7609 14.1935 22.2121 14.0066 22.5449 13.6739C22.8776 13.3411 23.0645 12.8899 23.0645 12.4193V5.32253C23.0645 4.85199 22.8776 4.40071 22.5449 4.06799C22.2121 3.73526 21.7609 3.54834 21.2903 3.54834C20.8198 3.54834 20.3685 3.73526 20.0358 4.06799C19.7031 4.40071 19.5161 4.85199 19.5161 5.32253V12.4193C19.5161 12.8899 19.7031 13.3411 20.0358 13.6739C20.3685 14.0066 20.8198 14.1935 21.2903 14.1935ZM28.3871 14.1935C28.8576 14.1935 29.3089 14.0066 29.6416 13.6739C29.9744 13.3411 30.1613 12.8899 30.1613 12.4193V5.32253C30.1613 4.85199 29.9744 4.40071 29.6416 4.06799C29.3089 3.73526 28.8576 3.54834 28.3871 3.54834C27.9166 3.54834 27.4653 3.73526 27.1326 4.06799C26.7998 4.40071 26.6129 4.85199 26.6129 5.32253V12.4193C26.6129 12.8899 26.7998 13.3411 27.1326 13.6739C27.4653 14.0066 27.9166 14.1935 28.3871 14.1935ZM49.6774 26.6129V28.387C49.6767 30.6437 48.816 32.8153 47.2705 34.4596C45.725 36.104 43.611 37.0976 41.3587 37.2381C40.1485 40.6613 38.088 43.7207 35.3708 46.129H40.8064C41.277 46.129 41.7283 46.3159 42.061 46.6486C42.3937 46.9814 42.5806 47.4326 42.5806 47.9032C42.5806 48.3737 42.3937 48.825 42.061 49.1577C41.7283 49.4904 41.277 49.6774 40.8064 49.6774H1.77419C1.30365 49.6774 0.852375 49.4904 0.519649 49.1577C0.186923 48.825 0 48.3737 0 47.9032C0 47.4326 0.186923 46.9814 0.519649 46.6486C0.852375 46.3159 1.30365 46.129 1.77419 46.129H7.21653C4.95289 44.1291 3.1392 41.6718 1.89523 38.9193C0.651263 36.1668 0.0053023 33.1818 0 30.1612V19.5161C0 19.0455 0.186923 18.5943 0.519649 18.2615C0.852375 17.9288 1.30365 17.7419 1.77419 17.7419H40.8064C43.1592 17.7419 45.4155 18.6765 47.0792 20.3401C48.7428 22.0038 49.6774 24.2601 49.6774 26.6129ZM39.0323 21.2903H3.54839V30.1612C3.55523 33.4925 4.49663 36.7549 6.26557 39.5777C8.0345 42.4005 10.56 44.6703 13.5548 46.129H29.0258C32.0207 44.6703 34.5462 42.4005 36.3151 39.5777C38.084 36.7549 39.0254 33.4925 39.0323 30.1612V21.2903ZM46.129 26.6129C46.1287 25.5125 45.7873 24.4392 45.1518 23.5408C44.5164 22.6425 43.6181 21.9631 42.5806 21.5963V30.1612C42.5793 31.2754 42.4903 32.3877 42.3145 33.4879C43.4153 33.1626 44.3815 32.4902 45.069 31.571C45.7564 30.6518 46.1282 29.5349 46.129 28.387V26.6129Z" fill="#2C2B2B"/>
</svg>
